<svg width="400" height="278" viewBox="0 0 400 278" fill="none" xmlns="http://www.w3.org/2000/svg">
<g clip-path="url(#clip0_9_5)">
<path d="M372.533 14.9333C373.733 27.4667 375.867 36 378 36C380.267 36 381.333 32.9333 380 30.6667C379.333 29.7333 378.533 24 378 18.1333C377.067 8.26667 376 5.46667 372.8 5.33333C372.267 5.33333 372.133 9.73333 372.533 14.9333Z" fill="#FACC15"/>
<path d="M25.3334 36.5333C25.3334 55.4667 26.2667 59.6 29.6 56.2667C30.4 55.4667 31.4667 52 32.1334 48.5334C33.6 40.9333 34 40.4 36.6667 42.6667C37.8667 43.6 38.6667 46.5334 38.6667 49.6C38.6667 53.8667 39.0667 54.8 41.0667 54.4C42.6667 54.1334 43.4667 52.5334 43.7334 49.2C44.2667 43.4667 39.2 37.3333 34 37.3333C30.9334 37.3333 30.6667 36.8 30.5334 31.6C30.4 28.5333 30.4 25.6 30.5334 25.0667C30.8 23.0667 28 17.3333 26.6667 17.3333C25.8667 17.3333 25.3334 24.2667 25.3334 36.5333Z" fill="#FACC15"/>
<path d="M267.6 22.2666C266.133 24.8 265.333 41.0666 266.533 44.8C267.6 48.5333 267.333 49.2 264.533 50.5333C260.8 52.1333 254.667 52.5333 254.667 51.0666C254.667 50.5333 256.133 48.9333 258 47.3333C259.867 45.8666 261.733 42.8 262.133 40.4C262.8 37.0666 262.4 36 260 34.6666C256 32.5333 253.867 34.6666 251.333 43.0666C249.733 48.5333 249.733 50.4 251.067 53.2C253.333 58 257.6 58.1333 266 54C272.933 50.4 273.067 50.2666 271.733 46.4C270.933 44 270.667 38.1333 271.2 31.8666C271.867 23.0666 271.733 21.3333 270.133 21.3333C269.067 21.3333 267.867 21.7333 267.6 22.2666Z" fill="#FACC15"/>
<path d="M66.4 23.4667C66 23.8667 66.1334 26.4001 66.8 29.0667C67.4667 31.7334 68 37.8667 68 42.6667C68 52.0001 69.3334 55.4667 72.2667 54.4001C73.7334 53.7334 73.8667 51.2001 73.2 40.9334C72.6667 33.8667 71.8667 26.9334 71.3334 25.3334C70.5334 22.8001 68 21.7334 66.4 23.4667Z" fill="#FACC15"/>
<path d="M180.8 25.2C179.867 26.5333 180.4 31.4667 182.133 37.6C182.533 38.9333 181.867 40.1333 180.267 40.5333C178.933 40.9333 176.667 43.4667 175.067 46.2667C172.533 50.6667 172.267 50.8 171.333 48.1333C170.533 45.3333 165.2 43.0667 162.933 44.5333C162.133 44.9333 160.933 43.4667 160.133 41.2C158.933 37.6 155.2 36.1333 155.333 39.4667C155.467 41.7333 157.467 54 158 55.6C158.933 58.2667 162 56.2667 163.6 51.8667C165.467 46.9333 168 47.8667 168 53.4667C168 58.1333 171.467 58.8 172.4 54.2667L172.933 51.3333L174 54.4C175.2 58 180 59.4667 183.867 57.4667C185.333 56.6667 187.333 53.6 188.133 50.8C189.333 46.5333 189.333 44.4 187.467 39.2C186.267 35.7333 185.333 31.8667 185.333 30.6667C185.333 27.3333 182 23.2 180.8 25.2ZM184 47.0667C184 50.4 181.733 53.3333 179.067 53.3333C176.667 53.3333 176.933 50.5333 179.467 46.9333C182.133 43.2 184 43.2 184 47.0667Z" fill="#FACC15"/>
<path d="M76.6667 29.3333C76.2667 30 76.2667 36 76.8001 42.6666C77.6001 52.9333 78.0001 54.6666 80.1334 54.6666C82.2667 54.6666 82.4001 53.6 81.8667 44.2666C81.4667 38.6666 80.9334 32.6666 80.5334 30.9333C79.8667 27.8666 78.1334 27.0666 76.6667 29.3333Z" fill="#FACC15"/>
<path d="M346.133 35.0667C341.067 41.7334 340.267 47.2001 344.133 49.8667C349.6 53.6001 369.333 52.1334 369.333 48.0001C369.333 46.9334 366.933 46.8001 362 47.3334C358 47.8667 353.067 47.8667 351.2 47.4667L347.6 46.5334L351.867 42.1334C356.667 37.2001 357.067 34.0001 353.467 32.0001C349.867 30.1334 349.867 30.1334 346.133 35.0667Z" fill="#FACC15"/>
<path d="M315.067 35.8666C313.067 38.2666 312.667 38.2666 311.333 36.4C310.4 35.2 309.067 34.6666 308.267 35.2C306.133 36.5333 306.267 38.1333 308.8 40.5333C309.867 41.7333 310.267 42.6666 309.467 42.6666C308.8 42.6666 306.4 40.8 304.267 38.5333C300.933 34.9333 300 34.5333 297.467 35.8666C296 36.8 294.667 38 294.667 38.8C294.667 39.6 293.467 39.8666 292 39.3333C290 38.6666 289.333 39.0666 289.333 41.2C289.333 44 283.6 49.3333 280.533 49.3333C277.733 49.3333 278.267 42.9333 281.2 40.4C284.267 37.8666 283.733 36 280.133 36C276.933 36 274.4 42.2666 274.933 48.1333C275.333 52.5333 275.467 52.6666 280.933 52.5333C284.133 52.5333 287.733 51.4666 289.067 50.2666C291.2 48.2666 291.6 48.2666 293.067 50.6666C296.4 56 306.667 52.8 306.667 46.5333C306.667 45.2 307.2 44 307.733 44C308.4 44 308.8 45.3333 308.8 46.9333C308.533 52.1333 312.533 50.4 315.467 44.1333L318.4 38.1333L320.533 42.4C323.067 47.4666 323.867 47.6 328.4 44C332.933 40.4 333.467 40.6666 333.067 45.6C332.533 51.2 336 51.6 337.467 46.1333C339.467 38.6666 334.4 34.4 328.8 38.8C326.933 40.2666 325.333 40.9333 325.333 40.1333C325.333 38.2666 320.4 33.3333 318.667 33.3333C317.867 33.3333 316.267 34.5333 315.067 35.8666ZM302.667 42.5333C302.667 46.6666 299.733 50.1333 297.333 48.6666C295.333 47.4666 295.733 43.8666 298.267 41.0666C301.333 37.6 302.667 38.1333 302.667 42.5333Z" fill="#FACC15"/>
<path d="M243.333 39.6C241.333 50.6666 237.067 52.4 236 42.5333C235.467 38.4 234.667 36.5333 233.067 36.2666C231.333 35.8666 230.667 36.6666 230.667 38.9333C230.533 40.6666 229.733 43.7333 228.8 46C226.8 50.5333 225.733 49.2 225.067 41.3333C224.8 38.2666 224 36.6666 222.667 36.6666C221.067 36.6666 220.8 38 221.067 42.6666C221.867 52.4 226.667 57.4666 230.667 52.6666C232 51.0666 232.667 51.0666 235.067 52.5333C239.2 55.2 243.733 53.0666 246.133 47.2C248.4 41.8666 248.133 35.8666 245.867 35.0666C244.933 34.8 243.867 36.8 243.333 39.6Z" fill="#FACC15"/>
<path d="M50.1334 38C47.3334 40.9334 47.3334 49.7334 50.2668 52.6667C51.8668 54.2667 53.6001 54.6667 57.2001 54C59.8668 53.4667 62.5334 52.5334 63.3334 51.8667C65.4668 49.7334 61.3334 48 57.7334 49.4667C53.6001 50.9334 53.7334 50.9334 52.9334 48.9334C52.5334 47.8667 53.4668 47.2 55.7334 47.3334C58.4001 47.3334 59.6001 46.4 60.5334 43.6C62.0001 39.4667 61.0668 38 55.8668 36.6667C53.4668 36.1334 51.7334 36.5334 50.1334 38Z" fill="#FACC15"/>
<path d="M93.3334 39.7334C93.3334 40.2667 92 41.3334 90.4 42C86.8 43.6 86.1334 50.2667 89.4667 52.4C92.4 54.2667 101.333 52.4 101.333 49.8667C101.333 46 97.4667 38.6667 95.4667 38.6667C94.2667 38.6667 93.3334 39.0667 93.3334 39.7334ZM96 47.4667C96 49.3334 93.2 50 91.6 48.4C90.4 47.2 93.3334 43.8667 94.8 44.8C95.4667 45.2 96 46.4 96 47.4667Z" fill="#FACC15"/>
<path d="M128.8 40.8C124.133 45.3334 124.533 53.8667 129.467 55.3334C130.933 55.8667 134 55.4667 136.133 54.6667C139.467 53.2 140.4 53.3334 142.8 55.4667C145.2 57.6 145.6 57.6 147.467 55.7334C149.467 53.7334 149.333 53.4667 146.667 52C145.067 51.2 143.2 48.6667 142.4 46.5334C140.533 41.0667 136.667 41.0667 136.667 46.6667C136.667 49.0667 135.867 50.1334 133.733 50.4C129.733 50.9334 129.6 46.2667 133.467 43.4667C136.4 41.4667 135.867 38.6667 132.667 38.6667C131.733 38.6667 129.867 39.6 128.8 40.8Z" fill="#FACC15"/>
<path d="M378.8 49.7333C377.333 53.4667 379.2 55.6 382 53.3334C384.533 51.2 384.533 48.5333 382 47.4667C380.667 46.9333 379.467 47.7333 378.8 49.7333Z" fill="#FACC15"/>
<path d="M280.533 136.667C281.333 145.067 281.333 145.333 278 146.133C274 147.067 272 150.267 272 155.867C272 162.8 277.867 166.133 283.333 162.133C285.6 160.533 285.733 158.667 285.6 145.867C285.333 132.267 284.133 128 280.933 128C280.133 128 280 131.067 280.533 136.667ZM281.333 152.533C281.333 159.333 278.267 162.4 276.667 157.333C275.733 154.533 278 149.333 280 149.333C280.8 149.333 281.333 150.8 281.333 152.533Z" fill="#FACC15"/>
<path d="M152.8 140.933C151.467 157.067 151.733 161.067 154.133 162.4C156.533 163.733 160.933 163.067 163.6 160.933C164.8 160.133 166.667 160.267 169.333 161.333C173.6 163.067 178.8 162.267 183.733 159.2C188 156.4 187.333 154.133 181.2 150.133C174.533 145.733 170.267 146.267 167.333 152C166.267 154.133 164.133 156.533 162.667 157.333C159.6 158.933 159.2 157.733 161.867 154C162.8 152.533 164 150 164.533 148.267C165.867 144 161.733 144.267 159.733 148.667C157.467 153.867 156.267 152.667 157.467 146.267C158 143.2 158.533 138.4 158.667 135.6C158.667 131.6 158.133 130.667 156.133 130.667C154.133 130.667 153.6 132.133 152.8 140.933ZM178 153.333C180.667 156.267 180.533 156.667 176.667 157.867C172.4 159.067 170.133 156.933 171.867 153.467C173.733 150 174.933 150 178 153.333Z" fill="#FACC15"/>
<path d="M31.2001 133.867C30.0001 137.067 31.6001 140.133 34.0001 139.2C36.5334 138.133 36.5334 135.467 34.0001 133.333C32.4001 132 31.8667 132.133 31.2001 133.867Z" fill="#FACC15"/>
<path d="M322.667 138.667C322.667 141.733 322 142.667 320.133 142.667C316.4 142.667 315.467 144.933 318.533 146.533C320.533 147.733 320.933 148.933 320.4 154C319.733 158.933 320 160 321.733 160C323.333 160 324.133 158.267 324.8 153.6C325.6 147.6 325.867 147.067 329.467 147.067C331.6 147.067 333.733 146.8 334.133 146.267C335.6 144.8 333.2 142.667 329.867 142.667C327.2 142.667 326.667 142 326.667 138.667C326.667 136 326 134.667 324.667 134.667C323.333 134.667 322.667 136 322.667 138.667Z" fill="#FACC15"/>
<path d="M142.933 138.267C143.2 139.6 144.267 140.667 145.333 140.667C146.4 140.667 147.467 139.6 147.733 138.267C148 136.667 147.333 136 145.333 136C143.333 136 142.667 136.667 142.933 138.267Z" fill="#FACC15"/>
<path d="M337.333 144.4C337.333 149.2 336.933 154 336.533 155.2C335.2 158.667 339.867 159.467 342.133 156.133C345.067 152 348 152.533 348 157.333C348 162.667 351.467 162.533 352.533 157.2C353.6 152 351.6 149.333 346.533 149.333C343.067 149.333 342.8 148.933 342.4 143.067C342.133 138.267 341.467 136.533 339.733 136.267C337.6 135.867 337.333 136.933 337.333 144.4Z" fill="#FACC15"/>
<path d="M358.667 138.133C358.667 139.333 359.6 140 360.933 139.733C364.267 139.067 364.667 136 361.467 136C359.867 136 358.667 136.8 358.667 138.133Z" fill="#FACC15"/>
<path d="M369.333 141.333C365.333 145.333 365.867 148.8 370.667 149.867C374.267 150.533 374.667 150.933 373.333 153.333C372.533 154.8 370.8 155.867 369.6 155.733C368.267 155.467 367.333 156.133 367.333 157.333C367.333 158.667 368.667 159.333 371.2 159.333C376.267 159.333 381.333 151.867 378.667 148.667C377.733 147.6 375.867 146.667 374.533 146.667C371.467 146.667 371.333 144.933 374 142.667C376 141.067 375.6 138.667 373.2 138.667C372.533 138.667 370.8 139.867 369.333 141.333Z" fill="#FACC15"/>
<path d="M44.8 140.933C44.4 141.467 44 143.467 44 145.6C44 150.8 48.5333 150.267 49.0667 145.2C49.4667 141.867 46.6667 139.067 44.8 140.933Z" fill="#FACC15"/>
<path d="M227.6 145.6C226.4 146.533 224.8 149.067 224 151.067C221.333 158.533 227.6 162.667 234.4 157.867C237.2 156 237.467 156 238.933 159.2C239.733 161.2 241.467 162.667 242.933 162.667C246.133 162.667 246 161.467 241.867 154.133C238.267 147.733 234.533 146.4 233.867 151.2C233.467 153.6 231.2 156 229.067 156C226.8 156 228.267 151.733 231.333 148.8C234.267 146.133 234.4 145.467 232.533 144.8C229.867 143.733 230.267 143.733 227.6 145.6Z" fill="#FACC15"/>
<path d="M357.6 145.6C356.667 146.533 356 148.933 356 150.933C356 153.733 356.667 154.667 358.667 154.667C360.8 154.667 361.333 153.733 361.333 150.133C361.333 144.933 359.867 143.333 357.6 145.6Z" fill="#FACC15"/>
<path d="M248.933 146.267C248.133 147.6 250.933 162.667 251.867 162.667C253.733 162.533 255.467 160.4 256.667 156.667C258.533 151.467 260.533 151.6 261.067 156.933C261.333 159.6 262.267 161.333 263.333 161.333C266.133 161.333 266.933 159.067 266 154.533C264.933 149.733 259.867 146.667 256.8 149.2C255.2 150.533 254.533 150.267 253.333 148.133C251.867 145.333 250 144.533 248.933 146.267Z" fill="#FACC15"/>
<path d="M31.4668 147.867C30.2668 149.733 32.1334 166.533 33.6001 167.467C36.2668 169.067 37.0668 165.733 36.1334 156.8C35.3334 148.267 33.4668 144.533 31.4668 147.867Z" fill="#FACC15"/>
<path d="M55.2001 158.133C55.4667 164.4 56.1334 169.867 56.5334 170.267C57.7334 171.467 61.3334 169.467 61.3334 167.6C61.3334 166.533 62.4001 163.333 63.6001 160.533L65.8667 155.333L66.6667 161.2C67.0667 164.533 68.0001 167.333 68.9334 167.6C69.8667 168 72.1334 165.733 74.0001 162.667C78.5334 155.467 80.4001 156.8 79.2001 166.667C78.8001 170.933 78.9334 174.667 79.6001 175.067C82.0001 176.533 83.6001 173.867 84.5334 166.4C85.2001 159.733 84.9334 158.267 82.6667 156C79.6001 152.933 78.2667 152.8 74.5334 154.8C72.4001 155.867 71.4667 155.733 70.2667 154.133C67.6001 150.8 63.6001 151.067 61.7334 154.667C60.1334 157.867 60.0001 157.733 60.0001 152.267C60.0001 147.6 59.6001 146.667 57.3334 146.667C54.8001 146.667 54.6667 147.333 55.2001 158.133Z" fill="#FACC15"/>
<path d="M125.867 150.133C124.267 152.4 123.2 153.067 122.267 152.133C118.667 148.533 117.333 150.667 117.333 159.333C117.333 167.2 117.6 168 120 168C121.467 168 123.067 166.933 123.467 165.6C124.933 160.933 129.467 151.733 130 152.267C130.4 152.667 131.067 156.4 131.467 160.8C132.4 169.867 132.533 170 135.467 168.8C137.333 168.133 137.6 166.667 136.8 159.733C136.267 155.2 135.2 150.4 134.533 149.067C132.667 145.6 128.4 146.133 125.867 150.133Z" fill="#FACC15"/>
<path d="M141.467 156.667C141.467 164.133 141.867 165.333 143.867 165.333C146.667 165.333 148.133 159.333 147.067 152.267C146.533 149.333 145.6 148 143.867 148C141.867 148 141.467 149.2 141.467 156.667Z" fill="#FACC15"/>
<path d="M201.333 164.8C201.333 178 206.133 174.533 206.533 160.933C206.667 156.8 206.267 156 204 156C201.6 156 201.333 156.933 201.333 164.8Z" fill="#FACC15"/>
<path d="M295.867 182.267C295.6 186.4 296.267 207.333 296.8 208.267C297.2 208.8 298.133 208.933 299.067 208.533C300.4 208.133 300.8 204.267 300.8 194.933C300.667 183.733 300.4 182 298.4 181.6C297.067 181.333 296 181.6 295.867 182.267Z" fill="#FACC15"/>
<path d="M266.133 187.467C262.8 190.933 262.533 192.133 262.133 203.467C262 208.667 259.6 211.6 254.533 212.667C250.533 213.6 249.467 215.6 252.4 216.8C257.333 218.667 268 210.267 268 204.533C268 202.133 268.8 201.467 272.4 201.067C277.6 200.533 276.8 198 271.333 197.867C264.4 197.867 265.6 190.667 273.067 187.867C274.8 187.2 275.733 186.133 275.333 185.333C273.867 182.933 269.733 183.867 266.133 187.467Z" fill="#FACC15"/>
<path d="M307.2 186C306.667 187.2 306.667 188.4 306.933 188.8C308.133 189.867 312.133 187.733 311.6 186.267C310.8 183.867 308 183.6 307.2 186Z" fill="#FACC15"/>
<path d="M36 188.667C36 189.867 37.2 190.667 39.3333 190.667C41.7333 190.667 42.4 190.133 41.8667 188.667C41.3333 187.6 39.8667 186.667 38.5333 186.667C37.2 186.667 36 187.6 36 188.667Z" fill="#FACC15"/>
<path d="M248.533 191.333C248 194.667 247.067 196 245.867 195.467C243.333 194.533 241.867 197.467 244.4 198.8C246.133 199.867 246.133 200.667 244.667 206C243.467 209.733 243.333 212.267 244.133 212.8C246.4 214.133 249.067 210.667 250 205.2C250.533 202 252.267 198.533 254.4 196.667C257.2 194 257.467 193.333 255.733 193.333C254.533 193.333 253.333 192.133 253.067 190.4C252.4 185.6 249.6 186.133 248.533 191.333Z" fill="#FACC15"/>
<path d="M317.467 194.133C312.533 200.4 314.133 206.667 320.533 206.667C326.267 206.667 330.667 203.333 330.667 198.933C330.667 194 329.333 192.533 324.533 191.467C320.933 190.667 319.867 191.067 317.467 194.133ZM325.333 198C325.333 199.867 324.4 201.733 323.333 202.267C320.4 203.333 319.6 202 320.533 198C321.6 193.6 325.333 193.6 325.333 198Z" fill="#FACC15"/>
<path d="M281.067 196.267C278.267 198.533 276.933 204.8 278.667 208C280.667 211.6 287.2 211.6 289.733 207.867C291.2 205.867 291.467 204 290.533 200.933C288.8 194.933 285.2 193.067 281.067 196.267ZM285.867 202.133C287.2 205.467 286.8 206.667 284.667 206.667C283.467 206.667 282.667 205.467 282.667 203.333C282.667 199.6 284.667 198.8 285.867 202.133Z" fill="#FACC15"/>
<path d="M304.933 196.933C304.4 197.333 304 200.133 304 202.933C304 207.2 304.4 208.133 306.4 207.733C309.333 207.2 310.533 196 307.6 196C306.667 196 305.333 196.4 304.933 196.933Z" fill="#FACC15"/>
<path d="M48.2667 198.933C45.6001 201.6 46.4001 204.533 50.6667 208.667C52.9334 210.8 54.6667 213.467 54.6667 214.8C54.6667 217.467 51.6001 220.267 49.2001 219.733C48.1334 219.467 47.3334 220.267 47.3334 221.333C47.3334 224.667 54.0001 224.533 57.2001 221.2C61.0667 217.067 60.6667 212.933 56.0001 207.467C52.4001 203.333 52.1334 202.667 54.1334 201.6C55.3334 200.933 56.0001 199.733 55.4667 198.8C54.2667 196.8 50.2667 196.933 48.2667 198.933Z" fill="#FACC15"/>
<path d="M186 199.2C184.667 200.133 182.533 200.667 181.333 200.4C179.6 199.867 179.2 201.467 179.067 210.533C178.8 220.267 179.067 221.333 181.2 221.333C184.267 221.333 185.333 218.8 185.333 212.133C185.333 206.8 188.4 201.333 191.467 201.333C192.533 201.333 193.333 202.533 193.333 204C193.333 206 192.4 206.667 190 206.667C188.133 206.667 186.667 207.2 186.667 207.867C186.667 210 190.533 212.267 193.6 211.733C197.467 211.2 200.133 202.667 197.333 199.467C195.333 196.8 189.333 196.667 186 199.2Z" fill="#FACC15"/>
<path d="M222.267 198.267C221.867 198.933 221.867 203.2 222.267 207.733C222.933 214.4 223.467 216 225.333 216C226.933 216 228 214.533 228.533 211.6C229.6 205.867 231.2 203.6 234.267 203.333C237.733 203.2 240.133 201.333 239.333 199.867C238.267 198.267 231.867 198.4 229.333 200C228 200.8 226.667 200.533 225.2 199.2C224 198.133 222.667 197.733 222.267 198.267Z" fill="#FACC15"/>
<path d="M208.267 199.6C206.267 200.4 202.667 207.067 202.667 209.867C202.667 212.8 206.4 216 209.867 216C213.467 216 218.667 210.8 218.667 207.2C218.667 204.667 213.2 198.533 211.2 198.8C210.533 198.8 209.2 199.2 208.267 199.6ZM212.8 208.8C212 211.067 208 211.333 208 209.067C208 208.267 209.067 206.4 210.4 204.933C212.4 202.667 212.667 202.667 213.067 204.533C213.333 205.867 213.2 207.733 212.8 208.8Z" fill="#FACC15"/>
<path d="M36 208.933C36 218.533 37.3333 222.133 40.1333 221.067C41.6 220.533 41.8667 217.867 41.6 210.133C41.2 201.2 40.8 200 38.5333 200C36.2667 200 36 201.067 36 208.933Z" fill="#FACC15"/>
<path d="M89.8667 208.267C90.1333 218 92 219.333 96.2667 212.8C99.7333 207.333 102.267 206.667 102.133 210.933C101.867 215.867 106.133 215.333 109.6 210.133C111.333 207.467 113.067 205.333 113.733 205.333C114.267 205.333 114.667 208.667 114.667 212.8C114.667 219.067 115.067 220.133 117.067 219.733C118.933 219.333 119.333 217.867 119.333 211.6C119.2 202.267 116.667 198.8 111.867 201.467C110.133 202.267 108.267 203.6 107.867 204.267C107.333 205.067 105.867 204.933 104.267 203.867C102.133 202.533 100.8 202.533 98.1333 203.733C95.0667 205.067 94.6667 204.933 94.6667 202.667C94.6667 200.933 93.7333 200 92.1333 200C90 200 89.7333 201.067 89.8667 208.267Z" fill="#FACC15"/>
<path d="M131.6 208.133C130.667 215.6 132.533 219.2 136.667 218.133L139.867 217.333L138 222.8C136.933 225.867 136 230.667 136 233.6C136 237.867 136.4 238.8 138.4 238.4C139.733 238.133 140.8 236.533 141.067 234.667C141.333 232.8 142.933 225.467 144.667 218.267C146.533 211.067 148 204.667 148 204C148 201.2 144 202.933 142.133 206.4C141.067 208.533 139.2 211.067 138 212C136 213.733 135.733 213.333 136.267 208.667C136.533 204.667 136.133 203.333 134.533 202.933C132.933 202.667 132.133 204 131.6 208.133Z" fill="#FACC15"/>
<path d="M149.333 245.333C149.333 249.2 148.8 250.667 147.333 250.667C145.067 250.667 144.667 252.8 146.667 254C147.467 254.4 148 258.133 148 262.133C148 268.4 148.4 269.467 150.4 269.067C152.133 268.8 152.8 267.067 153.067 261.733C153.467 255.867 153.867 254.8 156.267 254.4C160.667 253.733 160.933 250.667 156.667 250.667C153.467 250.667 153.2 250.267 153.867 247.467C154.8 243.467 153.6 240 151.2 240C149.867 240 149.333 241.6 149.333 245.333Z" fill="#FACC15"/>
<path d="M97.6 246.533C96.6667 247.067 95.4667 251.733 95.0667 257.067C93.8667 271.867 98.1334 276.267 108.8 271.2C116.667 267.467 114.4 263.067 103.6 260.667C100 260 100 259.733 100.8 253.467C101.6 246.933 100.533 244.667 97.6 246.533ZM106.4 266.933C106 267.867 104.667 268.667 103.333 268.667C102 268.667 100.667 267.867 100.4 266.933C100 266 101.067 265.333 103.333 265.333C105.6 265.333 106.667 266 106.4 266.933Z" fill="#FACC15"/>
<path d="M132 247.333C132 248.4 133.2 249.333 134.667 249.333C136.133 249.333 137.333 248.4 137.333 247.333C137.333 246.267 136.133 245.333 134.667 245.333C133.2 245.333 132 246.267 132 247.333Z" fill="#FACC15"/>
<path d="M167.333 249.867C163.467 253.733 161.733 259.6 163.6 262.533C165.6 265.733 181.733 265.6 184.933 262.4C187.867 259.333 186.667 258.267 182.133 260C177.867 261.6 168 261.867 168 260.267C168 259.733 169.733 258.533 172 257.733C176.933 255.867 180.133 249.733 177.2 247.867C174 245.867 170.667 246.533 167.333 249.867Z" fill="#FACC15"/>
<path d="M119.6 255.733C116.4 259.333 116.8 263.333 120.667 265.867C124.933 268.667 124.933 270.667 120.533 270.667C116.4 270.667 116.8 273.733 121.067 274.4C125.067 275.067 129.333 272.4 129.333 269.333C129.333 268 127.867 265.733 126 264.267C122.133 261.2 121.867 259.6 124.667 257.333C125.733 256.4 126.667 255.2 126.667 254.533C126.667 252.4 121.867 253.333 119.6 255.733Z" fill="#FACC15"/>
<path d="M41.8667 256.667C40.5333 260 42.2667 273.467 44.2667 275.467C47.2 278.4 51.8667 276.133 54.1333 270.8L56.1333 266L57.7333 269.333C59.7333 273.467 65.8667 274.533 69.3333 271.333C72.2667 268.667 73.4667 262.8 71.7333 259.6C69.8667 256 67.4667 257.6 67.2 262.533C67.0667 264.933 66.2667 267.6 65.3333 268.4C63.2 270.667 60 266 60 260.533C60 257.733 59.2 256 57.7333 255.467C55.8667 254.667 53.4667 256.533 53.3333 258.8C53.3333 259.333 52 262.533 50.4 266.133L47.3333 272.667L46.6667 264.133C46 255.733 43.6 252 41.8667 256.667Z" fill="#FACC15"/>
<path d="M77.4667 260.8C75.8667 262.8 74.6667 265.467 74.6667 266.8C74.6667 271.067 77.7334 276 80.9334 276.8C85.7334 278 93.3334 276.267 93.3334 273.733C93.3334 272.133 92.5334 271.867 89.7334 272.667C85.4667 273.733 85.2001 273.733 83.0667 273.467C80.4001 273.2 81.0667 269.733 83.8667 268.933C85.2001 268.667 87.4667 266.8 88.6667 264.8C90.5334 262 90.6667 260.933 89.3334 259.333C86.6667 256.133 80.5334 256.933 77.4667 260.8Z" fill="#FACC15"/>
<path d="M131.6 259.6C130 261.067 130.533 268.667 132.4 271.067C135.067 274.667 136.8 271.867 136.267 264.933C135.733 259.2 134 257.067 131.6 259.6Z" fill="#FACC15"/>
<path d="M195.333 262.667C194.8 263.6 194.933 264.8 195.6 265.467C197.2 267.067 201.6 265.467 200.933 263.467C200.267 261.467 196.4 260.933 195.333 262.667Z" fill="#FACC15"/>
</g>
<defs>
<clipPath id="clip0_9_5">
<rect width="400" height="277.333" fill="white"/>
</clipPath>
</defs>
</svg>
