<svg width="400" height="208" viewBox="0 0 400 208" fill="none" xmlns="http://www.w3.org/2000/svg">
<path d="M35.2 28.2666C34.5333 29.2 33.8667 39.2 33.6 50.2666C33.0667 70 33.2 70.6666 35.7333 70.6666C37.8667 70.6666 39.0667 68.9333 41.0667 62.9333C42.4 58.8 44.1333 55.4666 44.8 55.6C45.4667 55.6 46.8 58.5333 47.8667 61.8666C49.2 66.2666 50.4 68 51.8667 67.7333C54.9333 67.0666 54.4 58 51.0667 53.6C48.4 50 41.3333 47.8666 41.3333 50.5333C41.3333 51.3333 40.6667 52 39.8667 52C38.6667 52 38.5333 48.8 39.2 40.9333C39.8667 32 39.7333 29.4666 38.1333 28.1333C36.6667 26.9333 36 26.9333 35.2 28.2666Z" fill="#FACC15"/>
<path d="M152.533 31.3333C152.133 32.4 152.133 33.8667 152.533 34.5333C153.867 36.6667 157.333 34.6667 157.333 31.8667C157.333 28.9333 153.6 28.4 152.533 31.3333Z" fill="#FACC15"/>
<path d="M357.333 32.7999C356.533 34.6666 356 37.1999 356 38.5332C356 39.7332 355.333 41.4666 354.533 42.2666C353.467 43.3332 353.6 44.3999 354.667 46.1332C356.933 49.8666 354.667 57.5999 350.533 59.5999C346 61.8666 346.4 64.6666 351.333 64.3999C356.533 63.9999 359.6 60.1332 360.8 52.6666C361.6 46.9332 361.867 46.6666 366.133 46.6666C369.2 46.6666 371.067 45.8666 371.6 44.5332C372.533 41.8666 369.733 39.8666 365.467 40.2666C361.2 40.7999 360.4 38.1332 363.867 35.1999C365.867 33.4666 366.267 32.3999 365.067 31.0666C362.667 28.1332 358.667 29.0666 357.333 32.7999Z" fill="#FACC15"/>
<path d="M338.667 34.6666C338.667 35.3333 337.467 36 336 36C330.8 36 326.8 51.6 330.933 55.7333C333.6 58.4 340.533 57.6 343.733 54.2666C347.6 50.1333 347.733 41.6 343.867 36.8C341.067 33.3333 338.667 32.2666 338.667 34.6666ZM341.333 44.4C341.333 48.8 337.333 54.2666 335.6 52.4C333.867 50.8 334.667 44.1333 336.8 42.1333C340 38.9333 341.333 39.6 341.333 44.4Z" fill="#FACC15"/>
<path d="M278.933 41.5999C278.133 42.3999 277.333 43.7333 277.333 44.3999C277.333 45.0666 276.4 47.7333 275.2 50.2666C272.4 55.9999 273.733 57.4666 282.533 58.3999C287.467 58.7999 290.267 58.3999 292.667 56.7999C297.333 53.7333 295.867 52.1333 289.333 53.3333C286.4 53.8666 284 54.1333 284 53.8666C284 53.5999 285.2 52.1333 286.8 50.5333C288.533 48.7999 289.333 46.5333 289.067 44.2666C288.8 41.3333 287.867 40.5333 284.667 40.2666C282.4 39.9999 279.867 40.6666 278.933 41.5999ZM283.467 49.0666C282.533 51.9999 278.667 54.1333 278.667 51.7333C278.667 49.8666 282.8 45.0666 283.733 45.8666C284 46.2666 283.867 47.5999 283.467 49.0666Z" fill="#FACC15"/>
<path d="M208.133 44.5333C204.267 48.6667 205.333 52.5333 211.067 56.1333L215.333 58.6667H211.733C207.067 58.6667 206.667 62.2667 211.2 63.4667C215.333 64.4 220 62 220 58.6667C220 57.3333 218.267 54.9333 216 53.3333C211.333 50 210.933 48 214.667 47.0667C218.133 46.1333 217.6 42.1333 214 41.6C212.4 41.3333 209.867 42.6667 208.133 44.5333Z" fill="#FACC15"/>
<path d="M170.4 44.7999C163.733 48.2666 162.533 54.9333 168.133 56.6666C169.467 57.1999 170.667 58.1333 170.667 58.7999C170.667 59.9999 170.267 60.1333 166.4 60.5333C165.467 60.5333 164.533 61.7333 164.267 62.9333C163.867 64.7999 164.667 65.3333 167.6 65.3333C176.133 65.3333 181.467 55.7333 174 53.8666C169.867 52.7999 169.733 51.1999 173.733 49.1999C177.2 47.3333 178.8 45.1999 177.867 43.7333C176.933 42.1333 174.533 42.5333 170.4 44.7999Z" fill="#FACC15"/>
<path d="M246.933 43.8666C244.133 45.5999 245.333 57.8666 248.4 58.3999C250 58.7999 251.333 57.3333 252.933 53.7333C255.2 48.7999 255.2 48.6666 255.733 52.2666C256.267 56.6666 259.2 57.1999 261.6 53.3333C264.133 49.4666 265.333 49.9999 265.333 55.0666C265.333 60.1333 266.133 61.4666 268.8 60.3999C270 59.9999 270.667 57.5999 270.667 53.8666C270.667 49.3333 270 47.7333 267.867 46.6666C266.4 45.7333 264.267 45.4666 263.2 45.8666C262.133 46.2666 260.133 45.9999 258.8 45.0666C257.2 44.1333 255.733 43.9999 254 45.0666C252.133 45.9999 251.067 45.9999 250 44.5333C249.2 43.4666 248 43.1999 246.933 43.8666Z" fill="#FACC15"/>
<path d="M226.667 45.3333C224.4 46.6666 223.467 56.4 225.2 59.8666C227.2 63.4666 234.667 63.7333 237.6 60.2666C240.667 56.9333 241.867 50 239.733 48.4C237.067 46.1333 228.533 44.1333 226.667 45.3333ZM235.2 53.8666C233.867 58 231.467 59.0666 230.133 56C228.4 52.2666 230 49.4666 233.333 50.2666C235.467 50.8 235.867 51.6 235.2 53.8666Z" fill="#FACC15"/>
<path d="M80.2667 55.3333C80.2667 60.9333 80.8 65.7333 81.4667 66C83.3333 67.2 86.6667 65.0666 86.6667 62.5333C86.6667 57.8666 92.1333 52 96.4 52C99.3333 52 100.133 51.4666 99.7333 49.6C99.3333 48 98 47.3333 94.6667 47.4666C92.1333 47.4666 88.9333 48 87.7333 48.5333C86 49.3333 85.3333 49.0666 85.3333 47.4666C85.3333 46.2666 84.2667 45.3333 82.6667 45.3333C80.2666 45.3333 80 46.1333 80.2667 55.3333Z" fill="#FACC15"/>
<path d="M60 48.6667C57.2 52 56.8 60.9333 59.2 64.6667C60.4 66.5333 62.2667 68 63.3333 68C67.2 68 76 63.6 76 61.7333C76 59.7333 75.0667 59.7333 66.6667 62L63.3333 62.9333L66.6667 60.6667C70.8 57.7333 73.3333 54.6667 73.3333 52.5333C73.3333 47.4667 63.3333 44.5333 60 48.6667ZM66.1333 54.1333C65.7333 55.3333 65.3333 56.6667 65.3333 57.2C65.3333 57.7333 64.4 58.2667 63.3333 58.2667C62.2667 58.2667 61.6 57.8667 61.8667 57.4667C62.1333 57.0667 62.6667 55.6 63.0667 54.2667C63.6 53.0667 64.5333 52 65.4667 52C66.2667 52 66.5333 52.9333 66.1333 54.1333Z" fill="#FACC15"/>
<path d="M104.376 48.9606C101.576 52.2939 101.176 61.2273 103.576 64.9606C104.776 66.8273 106.643 68.2939 107.709 68.2939C111.576 68.2939 120.376 63.8939 120.376 62.0273C120.376 60.0273 119.443 60.0273 111.043 62.2939L107.709 63.2273L111.043 60.9606C115.176 58.0273 117.709 54.9606 117.709 52.8273C117.709 47.7606 107.709 44.8273 104.376 48.9606ZM110.509 54.4273C110.109 55.6273 109.709 56.9606 109.709 57.4939C109.709 58.0273 108.776 58.5606 107.709 58.5606C106.643 58.5606 105.976 58.1606 106.243 57.7606C106.509 57.3606 107.043 55.8939 107.443 54.5606C107.976 53.3606 108.909 52.2939 109.843 52.2939C110.643 52.2939 110.909 53.2273 110.509 54.4273Z" fill="#FACC15"/>
<path d="M152 55.8666C152 63.0666 152.4 65.3333 153.867 65.3333C157.333 65.3333 158.8 61.5999 158.4 54.3999C158 48.2666 157.6 47.3333 155.067 46.9333C152.133 46.5333 152 46.9333 152 55.8666Z" fill="#FACC15"/>
<path d="M271.6 79.6C271.067 80 270.667 82.8 270.667 85.6C270.667 89.6 271.2 90.6666 273.2 90.6666C276.267 90.6666 278.267 81.4666 275.6 79.7333C273.6 78.4 272.667 78.4 271.6 79.6Z" fill="#FACC15"/>
<path d="M158.667 90.6666C158.667 97.1999 158.533 97.4666 155.067 97.0666C150.133 96.5332 149.2 100.667 154 101.867C156.533 102.533 157.333 103.467 156.8 105.067C155.067 111.067 154.533 117.067 155.733 117.867C158.8 119.733 161.067 116.933 162 109.867C162.667 104.133 163.333 102.667 165.2 102.667C168 102.667 171.067 99.5999 169.733 98.2666C169.333 97.7332 167.733 97.3332 166.4 97.3332C164.4 97.3332 164 96.2666 164 91.4666C164 86.1332 162.533 83.9999 159.2 83.9999C158.933 83.9999 158.667 87.0666 158.667 90.6666Z" fill="#FACC15"/>
<path d="M224.8 90.8C222.933 93.0666 221.333 96.4 221.333 98.1333C221.333 100.533 220.667 101.333 219.067 101.067C215.6 100.533 215.333 104.933 218.667 106C221.333 106.8 221.467 107.6 220.667 113.067C219.867 119.067 216.267 124.133 211.867 125.6C210.8 126 210.533 127.067 211.067 128.533C211.733 130.267 212.8 130.667 214.933 129.867C223.2 127.333 226.667 121.6 226.667 110.267C226.667 105.733 226.933 105.333 230.533 105.333C234.267 105.333 237.067 103.333 235.6 101.733C235.067 101.333 232.933 100.667 230.667 100.133L226.4 99.3333L230.533 94.1333C232.8 91.3333 234.267 88.5333 233.867 87.8666C232.4 85.4666 228.133 86.8 224.8 90.8Z" fill="#FACC15"/>
<path d="M288 93.6C288 101.067 289.6 103.867 292.533 101.467C296.4 98.2666 294.4 88 290 88C288.533 88 288 89.6 288 93.6Z" fill="#FACC15"/>
<path d="M202.133 93.6C200.267 96 197.867 99.0667 196.667 100.267C194.4 102.933 194 106.667 196 106.667C196.8 106.667 197.333 108.8 197.333 111.333C197.333 114.533 196.133 117.333 193.2 120.533C189.333 124.933 188.933 128 192.267 128C193.067 128 195.733 125.733 198.133 123.067C202 118.933 202.667 117.2 202.667 111.733V105.333H207.467C211.2 105.333 212.133 104.933 211.733 103.067C211.467 101.6 209.733 100.4 207.333 100L203.333 99.2L207.067 95.8667C209.067 93.8667 210.667 91.7333 210.667 90.8C210.667 87.7333 205.467 89.4667 202.133 93.6Z" fill="#FACC15"/>
<path d="M327.6 90.8C324.533 92.6667 321.333 99.0667 321.333 103.733C321.333 112.267 333.067 116.8 339.2 110.667C341.467 108.4 341.733 107.733 340.133 106.8C338.933 106 337.067 106.267 335.067 107.6C332.667 109.2 331.6 109.333 330 108C328.4 106.667 328.8 105.733 332.667 102C337.867 97.0667 338.4 94.8 334.933 91.6C332.133 89.0667 330.933 88.9333 327.6 90.8Z" fill="#FACC15"/>
<path d="M36.9333 91.4666C36.4 91.9999 36 94.6666 36 97.4666C36 102.267 35.8667 102.533 31.0667 102.933C24.4 103.467 24 107.2 30.5333 107.733L34.9333 108.133L34 115.6C33.2 122.667 33.2 122.933 36.2667 122.4C38.9333 122 39.3333 121.2 39.7333 115.6C40.1333 109.467 40.2667 109.333 44.5333 109.333C46.9333 109.333 49.3333 108.933 49.7333 108.4C51.3333 106.933 47.7333 104 44.4 104C41.3333 104 41.0667 103.6 41.6 97.7332C41.8667 92.7999 41.4667 91.3332 40 90.9332C38.8 90.7999 37.4667 90.9332 36.9333 91.4666Z" fill="#FACC15"/>
<path d="M310.933 93.7333C310.267 94.6666 308.8 97.7333 307.867 100.667L306 106L305.6 101.067C305.2 96.3999 302.533 93.7333 299.867 95.4666C298.533 96.2666 299.6 104.533 301.6 108.267C302.933 111.067 308.4 111.467 310.267 108.933C311.6 107.333 316 95.9999 316 94.3999C316 92.7999 312.133 92.2666 310.933 93.7333Z" fill="#FACC15"/>
<path d="M54.6667 96.9333C54.6667 97.5999 54.4 103.2 54.1333 109.6C53.4667 122.933 54.4 124 61.6 118C66.1333 114.133 68.5333 114.267 69.0667 118.133C70.2667 126.4 70.6667 126.933 74.4 126.133C76.4 125.733 81.6 125.067 86 124.933C94.8 124.533 97.3333 123.467 97.3333 120.533C97.3333 118.933 96 118.8 90.8 119.467C84 120.4 80.1333 118.267 86 116.8C87.8667 116.267 90.2667 114.4 91.4667 112.667C94.2667 108.267 92.1333 105.333 86 105.333C80.5333 105.333 75.4667 110.933 76.5333 115.467C77.7333 120.133 75.4667 120.533 74 115.867C72 110 69.0667 108.267 64 110.267L60 111.733V103.867C60 96.9333 59.7333 95.9999 57.3333 95.9999C55.8667 95.9999 54.6667 96.3999 54.6667 96.9333Z" fill="#FACC15"/>
<path d="M271.6 96.9332C271.333 97.4666 271.333 101.733 271.733 106.4C272.133 112.933 272.8 114.667 274.4 114.4C278.133 113.6 279.2 110 277.867 103.2C277.067 98.7999 275.867 96.5332 274.4 96.2666C273.2 95.9999 272 96.3999 271.6 96.9332Z" fill="#FACC15"/>
<path d="M127.867 101.467C123.6 105.733 125.067 109.733 131.733 111.867C138.267 113.867 138.533 116.533 132.133 117.067C126.267 117.733 126.933 121.867 132.933 122.4C136.133 122.667 138.133 122 140.8 119.333C146.133 114 144.533 111.333 132.667 106.133C132 105.733 132.4 104.8 133.733 104C134.933 103.2 136 101.6 136 100.667C136 97.7333 131.067 98.2666 127.867 101.467Z" fill="#FACC15"/>
<path d="M184 104.267C181.2 110.267 178.133 110.933 179.333 105.333C180.133 101.467 180 101.2 177.067 101.6C174.533 101.867 174 102.933 173.6 107.467C173.067 114.267 175.733 117.067 181.067 115.2C184.933 113.867 190.667 106.267 190.667 102.533C190.667 98.3999 186.133 99.5999 184 104.267Z" fill="#FACC15"/>
<path d="M110.4 138C110 138.4 110.267 141.467 110.933 144.933C112.133 150.133 112 151.2 110.133 152.267C105.067 155.2 102 168.133 105.6 171.733C110.667 176.8 118.667 170.133 118.667 160.533C118.667 155.067 115.733 141.467 114 138.667C113.067 137.2 111.467 136.933 110.4 138ZM113.333 160.4C113.333 162.133 112.4 164.667 111.333 166.133C109.467 168.667 109.467 168.667 109.333 166C109.333 162 110.8 157.333 112.133 157.333C112.8 157.333 113.333 158.667 113.333 160.4Z" fill="#FACC15"/>
<path d="M370 140C369.467 140.933 369.6 142.133 370.4 142.933C372.267 144.8 376.4 143.2 375.733 140.933C374.933 138.8 371.2 138.133 370 140Z" fill="#FACC15"/>
<path d="M285.733 141.6C282.933 145.2 281.6 152.133 282.267 158.933C282.8 165.467 282.533 166.4 278.8 170.533C274.4 175.467 274.933 178.267 279.867 176.667C284.667 175.2 289.333 166.8 289.333 159.733V153.467L295.067 153.067C298.933 152.8 300.667 152 300.667 150.667C300.667 149.333 298.933 148.533 295.067 148.267C287.467 147.733 287.733 145.333 295.333 145.333C299.6 145.333 301.333 144.8 301.333 143.467C301.333 140.133 288.133 138.533 285.733 141.6Z" fill="#FACC15"/>
<path d="M341.733 143.333C339.867 144.667 338.533 144.933 338 144C337.6 143.333 336 142.667 334.533 142.667C332.533 142.667 332 143.333 332.533 144.933C332.8 146.267 333.467 150.267 334 154C334.4 157.6 335.333 161.2 336 161.867C338 163.867 341.067 160.267 342 154.667C343.067 148 345.2 146.4 352.267 146.933C356.667 147.2 358 146.8 358.4 145.2C359.2 141.2 346.667 139.867 341.733 143.333Z" fill="#FACC15"/>
<path d="M304.667 145.867C303.333 147.867 302.667 151.2 302.933 154.267C303.2 158.4 304 159.467 306.933 160.533C310 161.6 311.467 161.333 314.933 158.667C317.733 156.533 319.333 156.133 319.733 157.067C320.4 159.333 327.733 162.933 329.333 162C331.6 160.667 330.8 157.6 328 156.667C326.533 156.133 324.267 153.6 322.933 150.933C321.733 148.267 319.733 146 318.667 146C317.6 145.867 315.333 145.2 313.733 144.267C309.467 141.867 306.933 142.267 304.667 145.867ZM313.333 149.333C315.067 150.4 314.933 151.067 312.4 153.6C309.733 156.133 309.333 156.267 308.533 154.267C307.6 151.733 308.667 148 310.267 148C310.8 148 312.267 148.667 313.333 149.333Z" fill="#FACC15"/>
<path d="M197.6 151.6C190.933 156 190.267 159.6 196 161.467C200.533 163.2 201.333 165.333 197.2 165.333C193.067 165.333 194.533 169.867 198.933 170.4C205.6 171.2 209.733 160.8 203.333 159.2C198.933 158.133 199.2 157.2 204.133 154.267C208.267 152 208.8 148.933 205.2 148.267C204.133 148.133 200.8 149.6 197.6 151.6Z" fill="#FACC15"/>
<path d="M136.133 152.4C129.467 155.867 126.533 166.4 130.933 171.6C132.933 174.133 146.667 173.867 150.4 171.2C156.667 166.8 152 165.6 140.667 168.667C139.2 169.067 136.8 168.667 135.467 167.6C133.067 165.867 133.2 165.733 136.8 166.267C142.533 167.2 148 162.4 148 156.667C148 150.667 142.933 148.8 136.133 152.4ZM142.667 156.933C142.667 158.267 137.067 164 135.733 164C133.867 164 134.533 161.467 137.333 158.667C140 156 142.667 155.2 142.667 156.933Z" fill="#FACC15"/>
<path d="M32.6667 161.6C33.2 166.933 33.8667 171.733 34.2667 172.267C35.7333 174.8 38.5333 172.933 40 168.8C41.6 163.867 46.1333 157.333 47.8667 157.333C48.5333 157.333 49.3333 159.733 49.8667 162.667C50.8 169.067 54.4 169.867 57.8667 164.667C60.9333 160.133 62.6667 161.6 62.6667 168.667C62.6667 171.867 63.0667 175.333 63.4667 176.533C64.5333 179.333 67.4667 179.333 68.5333 176.533C69.6 173.867 68.1333 162.933 66.5333 159.733C64.8 156.533 59.2 155.333 56.4 157.467C54.6667 158.933 54.1333 158.933 53.6 157.6C52.6667 154.8 49.2 152 46.6667 152C45.3333 152 42.6667 153.733 40.9333 156L37.4667 160L37.0667 156.4C36.8 154 35.7333 152.533 34.1333 152.267C31.8667 151.733 31.7333 152.4 32.6667 161.6Z" fill="#FACC15"/>
<path d="M225.733 154.4C224 155.467 221.333 161.733 221.333 164.667C221.333 167.6 225.2 170.667 228.8 170.667C237.067 170.667 244.267 162.933 241.333 157.2C239.467 153.733 235.6 153.733 236.667 157.2C237.2 158.933 236.533 160.8 234.8 162.533C231.6 165.733 228 166.267 228 163.467C228 159.733 229.6 157.333 232.133 157.333C233.467 157.333 234.667 156.4 234.667 155.333C234.667 153.2 228.667 152.533 225.733 154.4Z" fill="#FACC15"/>
<path d="M369.733 155.467C368.667 158.4 372.133 160.4 374.533 158.133C375.467 157.067 375.867 155.6 375.467 154.8C374.133 152.667 370.667 153.067 369.733 155.467Z" fill="#FACC15"/>
<path d="M75.6 158.933C72.5333 161.2 71.0667 171.2 73.3333 174C76 177.2 82.1333 176.533 85.2 172.667L87.7333 169.2L90.4 172C92 173.733 93.7333 174.4 95.2 173.867C97.8667 172.8 97.8667 173.067 92.1333 164.933C89.6 161.467 86.5333 158.667 85.4667 158.667C84.2667 158.667 82.1333 158.267 80.6667 157.867C79.2 157.467 76.9333 158 75.6 158.933ZM84 164.267C84 166.133 80 170.667 78.4 170.667C77.0667 170.667 76.9333 164.8 78.2667 163.6C79.7333 162 84 162.533 84 164.267Z" fill="#FACC15"/>
</svg>
