<svg width="400" height="99" viewBox="0 0 400 99" fill="none" xmlns="http://www.w3.org/2000/svg">
<g clip-path="url(#clip0_9_101)">
<path d="M360.267 13.5999C360.8 16.6666 360.267 18.5333 358.8 19.5999C356.8 21.1999 356.8 21.4666 358.8 22.6666C360.933 23.8666 360.8 27.1999 358.533 35.8666C358.267 36.9333 359.067 37.9999 360.267 38.3999C361.867 38.6666 362.933 37.4666 363.867 33.7333C364.667 30.9333 365.333 27.5999 365.333 26.2666C365.333 24.9333 366.4 23.9999 368 23.9999C369.467 23.9999 370.667 23.4666 370.667 22.7999C370.667 22.1333 369.467 21.0666 368 20.6666C366.133 20.1333 365.333 18.6666 365.333 16.1333C365.333 12.5333 363.2 9.33328 360.933 9.33328C360.267 9.33328 360 11.3333 360.267 13.5999Z" fill="#FACC15"/>
<path d="M347.067 14.1333C346 16.9333 348.8 19.7333 350.8 17.7333C352.533 16 351.467 12 349.333 12C348.533 12 347.6 12.9333 347.067 14.1333Z" fill="#FACC15"/>
<path d="M286.133 14.4C285.733 15.0667 285.733 17.0667 286 18.9333C286.533 21.4667 286 22.5333 284 23.0667C280.8 23.8667 280.4 26.6667 283.467 26.6667C285.2 26.6667 285.467 27.7333 284.667 33.3333C283.867 39.4667 284 40 286.533 40C289.067 40 289.333 39.2 289.333 33.2C289.333 26.5333 289.467 26.4 292.667 27.2C295.2 27.8667 296 27.4667 296 25.8667C296 24.6667 294.8 23.4667 293.467 23.0667C291.733 22.6667 290.667 21.0667 290.4 18.2667C290 14.2667 287.6 12 286.133 14.4Z" fill="#FACC15"/>
<path d="M31.2 22C30.8 23.0666 30.8 24.5333 31.2 25.2C32.5334 27.3333 36 25.3333 36 22.5333C36 19.6 32.2667 19.0666 31.2 22Z" fill="#FACC15"/>
<path d="M53.3334 34.7999C53.3334 46.2666 53.6 48.1332 55.4667 47.7332C56.5334 47.4666 57.4667 46.9332 57.4667 46.2666C57.3334 45.7332 57.3334 39.8666 57.3334 33.3332C57.3334 23.5999 56.9334 21.3332 55.3334 21.3332C53.7334 21.3332 53.3334 23.7332 53.3334 34.7999Z" fill="#FACC15"/>
<path d="M89.3334 34.6666C89.3334 46 89.4667 46.6666 92.1334 46.6666C94.4 46.6666 94.8 46.1333 94.1334 43.6C93.7334 42 93.3334 36.6666 93.3334 31.6C93.3334 24.5333 92.9334 22.6666 91.3334 22.6666C89.7334 22.6666 89.3334 24.9333 89.3334 34.6666Z" fill="#FACC15"/>
<path d="M60.5334 26.1333C60.9334 27.3333 61.3334 32.6666 61.3334 38.2666C61.3334 47.0666 61.6001 48.1333 63.7334 47.7333C64.9334 47.4666 66.0001 46.2666 65.8667 44.9333C65.8667 43.7333 65.7334 38.4 65.6001 33.3333C65.3334 24.8 65.0667 24 62.5334 24C60.5334 24 60.0001 24.5333 60.5334 26.1333Z" fill="#FACC15"/>
<path d="M305.467 27.4666C302.267 31.4666 301.733 38.9332 304.533 41.1999C306.933 43.1999 312.667 41.0666 314.533 37.4666C316.667 33.4666 316.267 28.6666 313.6 26.2666C310.267 23.1999 308.667 23.4666 305.467 27.4666ZM312 30.3999C312 33.4666 308.533 38.2666 307.2 37.0666C306.133 35.8666 309.2 27.9999 310.8 27.9999C311.467 27.9999 312 29.0666 312 30.3999Z" fill="#FACC15"/>
<path d="M258.133 29.3333C259.2 34.1333 257.733 40.4 256 39.3333C255.2 38.9333 254.667 36.4 254.667 33.8667C254.667 30.2667 254.133 29.3333 252 29.3333C249.867 29.3333 249.333 30.2667 249.333 33.7333C249.333 38.9333 252.533 44 256 44C261.733 44 266.667 31.2 262.4 26.9333C259.333 23.8667 257.333 25.0667 258.133 29.3333Z" fill="#FACC15"/>
<path d="M43.6 28.6666C42.5333 31.3333 44 34.9333 45.8666 34.2666C46.6666 33.9999 47.3333 32.3999 47.3333 30.6666C47.3333 27.0666 44.6666 25.5999 43.6 28.6666Z" fill="#FACC15"/>
<path d="M347.2 29.6C347.6 31.3333 348 34.4 348 36.4C348 39.3333 348.533 40.1333 350.4 39.7333C354.667 38.9333 352.933 26.6666 348.4 26.6666C346.933 26.6666 346.533 27.4666 347.2 29.6Z" fill="#FACC15"/>
<path d="M168.8 30C167.733 31.2 166.4 34.2666 165.867 36.8C164.8 42.8 166.533 44.1333 174.533 43.7333C181.333 43.3333 184 40 177.467 40H173.467L175.733 36.1333C177.6 32.9333 177.6 32 176.133 30.1333C173.867 27.4666 171.467 27.4666 168.8 30Z" fill="#FACC15"/>
<path d="M214.267 28.9333C213.733 29.3333 213.333 30.8 213.333 32C213.333 34.1333 209.467 38.6666 207.6 38.6666C207.2 38.6666 206.667 36.6666 206.4 34.2666C205.867 28.9333 202.133 28.4 201.6 33.6C200.933 39.0666 203.467 42.6666 207.867 42.6666C211.2 42.6666 211.6 43.0666 210.933 46.2666C210 51.7333 208.133 53.7333 205.733 51.8666C202.933 49.4666 200.933 52.2666 203.067 55.3333C204.4 57.0666 205.867 57.4666 208.133 56.9333C214 55.3333 215.2 53.6 216.267 45.7333C216.8 41.4666 217.6 35.7333 218.133 32.9333C218.8 29.2 218.533 28 217.067 28C216 28 214.667 28.4 214.267 28.9333Z" fill="#FACC15"/>
<path d="M231.067 31.3333C228.8 32.2666 226.533 34.2666 226.133 35.7333C224.933 39.3333 227.733 44.9333 231.067 45.8666C234.267 46.6666 240.667 43.6 241.867 40.6666C243.067 37.3333 241.333 32.1333 238.667 30.6666C235.733 29.0666 236.267 29.0666 231.067 31.3333ZM237.067 38.1333C236.533 41.4666 232.267 42.1333 231.067 39.2C230.533 37.7333 231.2 36.2666 232.667 35.2C235.6 33.0666 237.867 34.5333 237.067 38.1333Z" fill="#FACC15"/>
<path d="M32.8 31.6C32.4 32 32 36.8 32 42.2667C32 50 32.4 52 34 52C35.6 52 36 50 36 42.1333C36 32.9333 34.9333 29.4667 32.8 31.6Z" fill="#FACC15"/>
<path d="M102.667 34.9332C101.2 37.3332 100 40.5332 100 42.1332C100 48.1332 109.6 51.8666 113.333 47.3332C115.6 44.5332 114.267 43.4666 110.8 45.1999C106.8 47.3332 106.267 44.7999 110 41.3332C113.6 37.8666 114.267 34.7999 111.733 32.2666C108.933 29.4666 105.333 30.5332 102.667 34.9332Z" fill="#FACC15"/>
<path d="M146.4 32.6666C145.333 33.7333 149.467 45.3333 150.933 45.3333C152.8 45.3333 162.667 35.3333 162.667 33.4666C162.667 31.3333 161.6 31.5999 157.067 34.7999L153.2 37.5999L151.2 34.7999C149.2 31.9999 147.733 31.3333 146.4 32.6666Z" fill="#FACC15"/>
<path d="M123.067 34.6665C119.2 36.2665 117.333 39.9999 118.8 43.5999C120.267 47.5999 124.8 48.6665 128.8 45.9999C131.6 44.2665 132.933 44.1332 136.4 45.1999C138.933 46.1332 140.933 46.2665 141.733 45.4665C143.467 43.7332 141.6 41.3332 138.667 41.3332C137.2 41.3332 134.8 39.4665 133.067 37.3332C130 33.1999 128.133 32.6665 123.067 34.6665ZM129.333 38.2665C129.333 38.9332 128.4 40.5332 127.333 41.8665C125.867 43.8665 124.933 44.1332 123.733 42.9332C122.667 41.8665 122.667 40.9332 124 39.3332C125.733 37.3332 129.333 36.5332 129.333 38.2665Z" fill="#FACC15"/>
<path d="M178.667 60.2666C178.667 70.2666 180.133 77.3333 182 77.3333C184.667 77.3333 185.067 74.7999 184.133 63.9999C183.467 55.9999 182.933 53.9999 181.067 53.5999C179.067 53.1999 178.667 54.1333 178.667 60.2666Z" fill="#FACC15"/>
<path d="M97.3334 63.0666C97.3334 63.9999 98 65.4666 98.9334 66.3999C100.933 68.3999 104.133 65.9999 103.067 63.1999C102.133 60.7999 97.3334 60.6666 97.3334 63.0666Z" fill="#FACC15"/>
<path d="M147.2 67.1999C146.8 68.1333 146.667 71.8666 146.933 75.3333C147.467 82.9333 150.267 85.7333 154.8 82.9333C157.2 81.3333 157.467 81.4666 156.8 83.5999C154.8 90.1333 153.733 97.4666 154.667 97.9999C158.133 100.133 162.667 87.0666 162.667 75.0666C162.667 69.5999 159.6 69.0666 157.067 74.2666C154 80.5333 152 79.5999 152 72.1333C152 66.9333 151.467 65.3333 150 65.3333C148.8 65.3333 147.6 66.1333 147.2 67.1999Z" fill="#FACC15"/>
<path d="M122.4 70.2667C114.267 79.6 117.6 89.6 127.333 85.0667C130.933 83.4667 134.667 77.8667 134.667 74.1333C134.667 71.7333 129.733 68 126.533 68C125.333 68 123.467 69.0667 122.4 70.2667ZM129.067 74.9333C129.333 76.1333 128.133 78.4 126.4 80C123.733 82.5333 123.333 82.5333 122.933 80.5333C122.267 77.6 125.333 71.7333 127.2 72.4C128 72.6667 128.8 73.8667 129.067 74.9333Z" fill="#FACC15"/>
<path d="M38.1334 73.4666C34 78.2666 33.6 85.0666 37.0667 89.3333C38.8 91.4666 40.9334 92.2666 45.8667 92.3999C50.1334 92.5333 52.5334 92.1333 52.9334 90.9333C53.3334 89.8666 52.1334 89.3333 49.3334 89.3333C47.0667 89.3333 43.8667 88.6666 42.2667 87.7333C39.4667 86.2666 39.6 86.1333 44.6667 84.7999C48 83.8666 50.6667 81.9999 51.8667 79.7333C53.6 76.6666 53.6 75.9999 51.6 72.7999C48.2667 67.8666 42.6667 68.1333 38.1334 73.4666ZM47.4667 75.3333C48.5334 77.9999 45.7334 81.3333 42.5334 81.3333C39.4667 81.3333 39.3334 80.1333 42.1334 76.2666C44.5334 72.7999 46.4 72.5333 47.4667 75.3333Z" fill="#FACC15"/>
<path d="M74.1334 74.6666C69.7334 78.5333 69.4667 78.6666 68.6667 75.9999C68.1334 74.5333 66.6667 73.3332 65.0667 73.3332C63.3334 73.3332 62.6667 73.9999 63.0667 75.1999C63.4667 76.1333 64.2667 79.7333 64.6667 83.1999C65.7334 89.9999 68.2667 91.1999 70.8001 86.2666C73.0667 81.8666 78.9334 75.9999 80.2667 76.7999C80.8001 77.1999 81.3334 80.5333 81.3334 84.1333C81.3334 89.8666 81.7334 90.7999 83.7334 90.3999C85.6001 89.9999 85.8667 88.6666 85.6001 81.9999C84.8001 69.7332 82.0001 67.8666 74.1334 74.6666Z" fill="#FACC15"/>
<path d="M103.2 72.5333C102.8 73.6 103.067 75.6 103.867 77.2C104.667 78.6667 105.333 81.3333 105.333 83.2C105.333 85.8667 104.533 86.8 101.733 87.4667C99.6 87.8667 97.4667 88.4 96.9334 88.4C96.4 88.5333 96.6667 89.7333 97.6 90.9333C99.0667 92.8 100 92.9333 104 91.6C107.733 90.2667 108.933 89.0667 109.867 85.3333C111.733 77.7333 105.6 66.1333 103.2 72.5333Z" fill="#FACC15"/>
<path d="M180 86C178.667 87.4667 178.667 88.5333 179.733 89.6C181.733 91.6 185.6 89.8667 185.067 87.0667C184.533 84 182.133 83.4667 180 86Z" fill="#FACC15"/>
</g>
<defs>
<clipPath id="clip0_9_101">
<rect width="400" height="98.6667" fill="white"/>
</clipPath>
</defs>
</svg>
